<svg xmlns="http://www.w3.org/2000/svg" xmlns:xlink="http://www.w3.org/1999/xlink" id="Layer_1" x="0px" y="0px" viewBox="0 0 250 150" style="enable-background:new 0 0 250 150;" xml:space="preserve"><style type="text/css">	.st0{fill:#EA202A;}	.st1{fill:#939496;}</style><g>	<g id="XMLID_1826_">		<g>			<path id="XMLID_124_" class="st0" d="M96.36,96.37h-4.61L75.81,77.14v19.23h-5.37V68.22h4.61l15.97,19.23V68.22h5.34V96.37z"></path>			<path id="XMLID_121_" class="st0" d="M121.73,91.01h-13.51l-2.31,5.36h-5.67l12.2-28.17h5.09l12.2,28.17h-5.69L121.73,91.01z     M110.11,86.58h9.7l-4.65-10.87l-0.17-0.72h-0.02l-0.17,0.72L110.11,86.58z"></path>			<path id="XMLID_119_" class="st0" d="M132.31,96.37l-0.06-3.93l16.44-19.79h-15.52v-4.43h22.58v3.85l-16.46,19.85h17.13v4.45    H132.31z"></path>			<path id="XMLID_116_" class="st0" d="M173.08,86.58h-6.21v9.79h-5.37V68.22h12.65c1.48,0,2.84,0.22,4.08,0.66    c1.24,0.44,2.32,1.07,3.22,1.87c0.91,0.81,1.61,1.78,2.11,2.91c0.5,1.13,0.75,2.38,0.75,3.75c0,1.02-0.14,1.98-0.41,2.87    c-0.27,0.89-0.66,1.69-1.17,2.41c-0.51,0.72-1.13,1.35-1.85,1.88c-0.73,0.54-1.53,0.97-2.42,1.3l6.53,10.49h-6.16L173.08,86.58z     M173.98,82.13c0.7,0,1.36-0.11,1.96-0.34c0.6-0.23,1.13-0.55,1.57-0.95c0.45-0.41,0.8-0.9,1.06-1.48    c0.26-0.58,0.39-1.22,0.39-1.92s-0.13-1.35-0.39-1.92c-0.26-0.58-0.61-1.08-1.06-1.5c-0.45-0.42-0.98-0.75-1.59-0.98    c-0.62-0.23-1.28-0.35-1.98-0.35h-7.07v9.46H173.98z"></path>			<path id="XMLID_113_" class="st0" d="M207.97,91.01h-13.51l-2.31,5.36h-5.67l12.2-28.17h5.09l12.2,28.17h-5.69L207.97,91.01z     M196.35,86.58h9.7l-4.65-10.87l-0.17-0.72h-0.02l-0.17,0.72L196.35,86.58z"></path>			<path id="XMLID_111_" class="st0" d="M245.81,96.37h-4.61l-15.95-19.23v19.23h-5.37V68.22h4.61l15.97,19.23V68.22h5.34V96.37z"></path>		</g>	</g>	<g id="XMLID_1779_">		<polygon id="XMLID_1825_" class="st1" points="42.6,93.01 42.6,93.01 25.27,59.7 59.92,59.7   "></polygon>		<polygon id="XMLID_1824_" class="st0" points="24.11,70.07 24.11,70.07 41.43,102.73 6.79,102.73   "></polygon>		<g id="XMLID_1822_">			<path id="XMLID_1823_" class="st0" d="M4.88,94.56c-0.1-0.01-0.21-0.04-0.3-0.09c-0.36-0.2-0.49-0.64-0.29-1l12.75-23.34    c0.2-0.36,0.64-0.49,1-0.29c0.36,0.2,0.49,0.64,0.29,1L5.58,94.18C5.43,94.44,5.16,94.58,4.88,94.56z"></path>		</g>		<g id="XMLID_1781_">			<path id="XMLID_1783_" class="st1" d="M48.96,93.85c-0.1,0-0.21-0.03-0.3-0.08c-0.36-0.19-0.51-0.63-0.32-0.99L60.46,69.1    c0.19-0.36,0.63-0.5,0.99-0.32c0.36,0.19,0.51,0.63,0.32,0.99L49.65,93.45C49.52,93.71,49.24,93.86,48.96,93.85z"></path>		</g>	</g></g></svg>